<?xml version="1.0" encoding="UTF-8" standalone="no"?>
<svg width="800" xmlns="http://www.w3.org/2000/svg" height="836">
 <g stroke-width=".5" fill-rule="evenodd">
  <path id="svg_2" stroke="#000" d="m627.8 270h0.20001l-0.8 10c-0.46668 6.6667-2.7 25-6.7 55s-6.5666 53.4-7.7 70.2c-1.2 16.867-1.8 25.4-1.8 25.6v0.20001l-0.5 0.2c-0.33331 0.19998-0.33331 0.39999 0 0.59998l0.5 0.2 0.2 21.5c0.20001 14.333 0.6333 25 1.3 32 0.66669 7 1.1 10.833 1.3 11.5l0.2 1-12.2 16c-8.2 10.667-12.4 16.067-12.6 16.2l-0.2 0.3-0.2 0.3-0.3 0.2-0.3 0.2-0.2 0.3-0.2 0.3-0.3 0.2-0.3 0.2-0.2 0.3v0.5l-0.5-0.2c-0.33331-0.20001-3.3333-0.79999-9-1.8s-14-1.6667-25-2c-11-0.33331-20.333 1.1667-28 4.5-7.6667 3.3333-18.333 5.5-32 6.5s-23.167 2.6667-28.5 5c-5.3333 2.3333-10.167 5.5-14.5 9.5l-6.5 6-0.2 0.3-0.3 0.2-0.3 0.2-0.2 0.3-0.2 0.3-0.3 0.2-0.3 0.2-0.2 0.3-0.2 0.3-0.3 0.2-0.3 0.2-0.2 0.3-0.2 0.3-0.3 0.2-0.3 0.2-0.2 0.3-0.2 0.3-0.3 0.2-0.3 0.5-0.2 0.5h-0.5l-0.3 0.5-0.2 0.5h-0.5l-0.3 2-0.2 2 10-0.2c6.6667-0.20001 10.5-0.1333 11.5 0.20001l1.5 0.5 1 0.5 1 0.5 0.2 0.3 0.3 0.2 0.3 0.2 0.2 0.3 0.2 0.3 0.3 0.2 0.3 0.2 0.2 0.3 0.2 0.3 0.3 0.2 0.5 1 0.5 1 0.3 0.2 0.2 0.3 0.2 0.3 0.3 0.2 0.3 1.5 0.2 1.5-4.5 0.2c-3 0.20001-10 0.1333-21-0.20001s-24-1.6-39-3.8l-22.5-3.2-0.5-0.2c-0.33334-0.20001-6.5667-6.5333-18.7-19-12.2-12.533-25.967-28.3-41.3-47.3s-30.1-38.767-44.3-59.3c-14.133-20.467-25.6-37.8-34.4-52l-13.3-21.2-0.5-1-0.5-1-0.3-0.2-0.2-0.3-0.2-0.3-0.3-0.2-0.5-1-0.5-1-0.3-0.2-0.2-0.3v-0.5l1 0.2 1 0.3 1.5 0.5 1.5 0.5 35 10c23.333 6.6667 44.5 11.833 63.5 15.5 19 3.6667 38.667 6.1667 59 7.5s38.667 1.1667 55-0.5 34.667-6 55-13 34.1-12.733 41.3-17.2c7.1334-4.5333 13.933-9.4 20.4-14.6 6.5333-5.1333 13.733-11.933 21.6-20.4 7.8-8.5333 17.533-21.3 29.2-38.3s17.833-26.167 18.5-27.5c0.66669-1.3333 1.1-2 1.3-2z"/>
  <path id="svg_3" fill="#fefe01" stroke="#fefe01" d="m422.8 159l0.2 1-0.2 0.5c-0.19998 0.33333-1.4666 3.1667-3.8 8.5-2.3333 5.3333-4.9333 9.7333-7.8 13.2l-4.2 5.3-1 0.5-1 0.5-1 0.5-1 0.5-1 0.5-1 0.5-0.2 0.3-0.3 0.2-0.3 0.2-0.2 0.3h6l1.5-0.5 1.5-0.5 3.5-1.5c2.3333-1 3.5-1.6 3.5-1.8v-0.2l13-1.8c8.6667-1.1333 16.667-3.5333 24-7.2 7.3333-3.6667 15.167-8 23.5-13 8.3333-5 13.833-7.8333 16.5-8.5 2.6667-0.66667 4.1667-1.1 4.5-1.3l0.5-0.2v1c0 0.66667 0.83334 1.0667 2.5 1.2 1.6667 0.2 2.8333 0.46668 3.5 0.8l1 0.5-1.5 0.5-1.5 0.5-1.8 0.7c-1.1333 0.53334-1.9334 1.4-2.4 2.6-0.53332 1.1333-0.46664 1.8 0.20001 2 0.66666 0.13333 0.39999 1.0333-0.79999 2.7-1.1333 1.6667-1.6 2.9-1.4 3.7 0.13333 0.86667 1.4667 2.0667 4 3.6 2.4667 1.4667 3.5334 2.5333 3.2 3.2-0.33334 0.66667 0.93332 1.6667 3.8 3 2.8 1.3333 4.2 2.3333 4.2 3 0 0.66667 0.83334 0.93333 2.5 0.8 1.6667-0.2 3.1667-0.53334 4.5-1 1.3333-0.53334 2-0.46668 2 0.2 0 0.66667 1.2667 0.16667 3.8-1.5 2.4667-1.6667 4.1334-3.5 5-5.5 0.79999-2 1.5333-3 2.2-3 0.66669 0 1 0.5 1 1.5s0.33331 1.5 1 1.5 1.0666-0.5 1.2-1.5c0.20001-1 0.39996-2.8333 0.59998-5.5l0.2-4 1 0.2 1 0.3 0.2 0.3 0.3 0.2 2.7 2.2c1.8666 1.5333 8.5333 6.0667 20 13.6 11.533 7.4667 19.067 12.533 22.6 15.2 3.4667 2.6667 5.2 4.3333 5.2 5 0 0.66667 2.5 3.2667 7.5 7.8 5 4.4667 7.5666 6.8 7.7 7l0.3 0.2 0.3 0.2 0.2 0.3 0.2 0.3 0.3 0.2 0.3 1 0.2 1h-4l-0.2 1-0.3 1-0.5 2.5-0.5 2.5-0.3 0.2-0.2 0.3-0.2 0.3-0.3 0.2-0.3-0.2-0.2-0.3-1-0.5-1-0.5-0.2-0.3-0.3-0.2-0.5-2c-0.33331-1.3333-1.4-2.4-3.2-3.2-1.8666-0.86667-3.3-2.1333-4.3-3.8s-3.5-3.0667-7.5-4.2c-4-1.2-6-1.4667-6-0.8 0 0.66667-0.66669 0.83333-2 0.5l-2-0.5v-3h-4v8h6.5c4.3333 0 7 1.3333 8 4s2.1667 4 3.5 4 2 1.3333 2 4 1.5 4 4.5 4 4.5666 0.33333 4.7 1l0.3 1 0.3 0.2 0.2 0.3 0.2 0.3 0.3 0.2v8l-0.3 0.2-0.2 0.3h-3.5c-2.3333 0-4.8333 0.10001-7.5 0.3l-4 0.2v16l-3.5-0.2c-2.3333-0.19998-4.8333-0.13333-7.5 0.20001s-4.1667 1.7333-4.5 4.2c-0.33331 2.5333-0.83331 3.7333-1.5 3.6-0.66669-0.19998-11.333 0.13333-32 1-20.667 0.80002-31.067 2.2-31.2 4.2-0.19998 2-2.7333 2.9333-7.6 2.8-4.8-0.19998-7.5334-0.46664-8.2-0.79999-0.66666-0.33334-1.1667-0.26666-1.5 0.20001-0.33334 0.53332-10.833 1.1333-31.5 1.8-20.667 0.66666-31 2-31 4s-4.1667 3-12.5 3-12.5 0.66666-12.5 2-1 2-3 2-3 0.66666-3 2-5.3333 2-16 2-16 1.3333-16 4-2.8333 4-8.5 4-8.5667 1.1667-8.7 3.5c-0.19998 2.3333-4.4 3.6667-12.6 4-8.1333 0.33334-12.2 1-12.2 2s-1 1.5-3 1.5-3.1667 0.83334-3.5 2.5c-0.33334 1.6667-2 2.5-5 2.5s-4.5 1-4.5 3-1 3-3 3-3.1667 2.8333-3.5 8.5c-0.33334 5.6667-10.167 8.6667-29.5 9l-29 0.5-0.2-7c-0.2-4.6667-0.40001-7.3333-0.60001-8-0.13333-0.66666-2.7-1-7.7-1h-7.5v-12l2.5-0.2c1.6667-0.19998 2.6667-1.5333 3-4 0.33333-2.5333 2-3.8 5-3.8s4.5-3.3333 4.5-10v-10l-3 0.2c-2 0.19998-3.2667 0.73331-3.8 1.6-0.46666 0.80002-0.8 0.36667-1-1.3-0.13333-1.6667-0.53332-2.4333-1.2-2.3l-1 0.3-1 0.3-1 0.2 0.2-1c0.2-0.66666 0.96668-2.5 2.3-5.5s1.7667-5.1 1.3-6.3l-0.8-1.7-1.5-0.5-1.5-0.5 0.2-0.3 0.3-0.2 0.3-0.2 0.2-0.3 0.2-0.3 0.3-0.2 0.3-1 0.2-1-2 0.2c-1.3333 0.19998-3.3333 0.96664-6 2.3-2.6667 1.3333-6.3333 2.1667-11 2.5l-7 0.5-0.2-0.3-0.3-0.2-0.3 0.2-0.2 0.3-1 0.3-1 0.2v-3l1-0.2 1-0.3 0.2-0.3 0.3-0.2 0.3-0.2 0.2-0.3 0.2-0.3 0.3-0.2 0.3 0.2 0.2 0.3 3-1c2-0.66666 4.0667-1.4333 6.2-2.3 2.2-0.80002 4.7333-2.0334 7.6-3.7 2.8-1.6667 4.2-2.8333 4.2-3.5 0-0.66666 0.83333-1.3333 2.5-2 1.6667-0.66667 2.5-1.3333 2.5-2 0-0.66667 1.8333-1.9333 5.5-3.8 3.6667-1.8 5.7667-2.8 6.3-3 0.46666-0.13333 0.8-0.26666 1-0.39999l0.2-0.3 0.2-0.3 0.3-0.2 0.3-0.2 0.2-0.3 0.2-0.3 0.3-0.2 0.3-0.2 0.2-0.3 0.2-0.3 0.3-0.2 0.3-0.2 0.2-0.3 1-0.5 1-0.5 1.5-0.3 1.5-0.2-0.2 0.5-0.3 0.5-0.3 0.2-0.2 0.3-0.2 0.3-0.3 0.2-0.5 1-0.5 1-0.3 0.2-0.2 0.3-0.2 0.3-0.3 0.2-1.5 2.5c-1 1.6667-1.6667 3.1667-2 4.5l-0.5 2-0.3 2-0.2 2h2l0.2 1 0.3 1 0.3 0.2 0.2 0.3 0.2 0.3 0.3 0.2 0.3 0.2 0.2 0.3 2 1c1.3333 0.66666 4.8333 0.83334 10.5 0.5s10.767-1.9333 15.3-4.8c4.4667-2.8 7.5334-5.3667 9.2-7.7 1.6667-2.3333 2.4-5.1667 2.2-8.5-0.13333-3.3333-1.0334-5.4-2.7-6.2-1.6667-0.86667-2.8333-1.4667-3.5-1.8l-1-0.5-1.5-0.3-1.5-0.2v-2l23.5-2.8c15.667-1.8 26.9-4.1333 33.7-7 6.8667-2.8 10.8-4.8667 11.8-6.2s1.6-2.1667 1.8-2.5l0.2-0.5h0.20001c0.19998 0 0.39999-0.16667 0.59998-0.5l0.2-0.5h0.20001c0.19998 0 0.39999 0.066666 0.59998 0.2l0.2 0.3 0.2 0.3 0.3 0.2 0.3-0.2 0.2-0.3 1.5-0.5 1.5-0.5 1.5-0.5 1.5-0.5 1-0.5 1-0.5h-8.5c-2.3333 0-4.3333-0.16667-6-0.5s-4.7667-1.7333-9.3-4.2c-4.4667-2.5333-10.933-5.4-19.4-8.6-8.5333-3.1333-18.133-5.2667-28.8-6.4l-16-1.8v-0.5l-1.5-0.5-1.5-0.5 1-0.5 1-0.5 1.5-0.5 1.5-0.5 0.2-0.3 0.3-0.2 0.3-0.2 0.2-0.3 4.2-1.7c2.8667-1.2 4.8667-2.1333 6-2.8 1.2-0.66667 1.6333-1.4 1.3-2.2-0.33334-0.86667 4.1-3.7333 13.3-8.6 9.1333-4.8 13.933-7.6 14.4-8.4 0.53332-0.86667 1.7333-1.0667 3.6-0.60001 1.8 0.53334 2.8 0.63333 3 0.3l0.2-0.5h0.5l0.5 1 0.5 1 2 4c1.3333 2.6667 2.5 4.5 3.5 5.5s2.3333 3.1667 4 6.5 3 5.1667 4 5.5c1 0.33333 1.7333 0.89999 2.2 1.7 0.53332 0.86667 1.1333 1.3 1.8 1.3 0.66666 0 1.3333-0.10001 2-0.3l1-0.2 0.2 1 0.3 1 0.3-0.2 0.2-0.3 0.2-0.3 0.3-0.2 0.3 0.2 0.2 0.3 0.2 0.3 0.3 0.2 0.3-0.2 0.2-0.3 1-0.5 1-0.5 0.2-0.3 0.3-0.2-0.3-1.5c-0.13333-1 0.29999-1.5 1.3-1.5s1.2333-1.3333 0.70001-4c-0.46668-2.6667-0.13333-5.4 1-8.2 1.2-2.8667 6.8-5.8 16.8-8.8s16.067-4.2667 18.2-3.8c2.2 0.53334 3.8 1.6333 4.8 3.3s1.6667 2.3333 2 2c0.33334-0.33333 0.73334-0.10001 1.2 0.7 0.53332 0.86667 1.5333 1.5333 3 2 1.5333 0.53334 2.2 0.86667 2 1-0.13333 0.2 0.46664 0.40001 1.8 0.60001l2 0.2v-1c0-0.66667 0.83334-1.1667 2.5-1.5 1.6667-0.33333 2.9-1.8333 3.7-4.5 0.86667-2.6667 1.4-4.6667 1.6-6 0.13333-1.3333 2.3667-1.7333 6.7-1.2 4.3333 0.46666 7.1667 0.86667 8.5 1.2s2.2667 1.0667 2.8 2.2c0.46668 1.2 0.80002 2.1333 1 2.8zm95.4 26.8c-0.13336-0.2-0.13336-0.40001 0-0.60001 0.20001-0.13333 0.29999-0.033325 0.29999 0.3 0 0.33333-0.099976 0.43333-0.29999 0.3zm-23 90c-0.13333-0.19998-0.13333-0.39999 0-0.59998 0.19998-0.13333 0.29999-0.033356 0.29999 0.29999 0 0.33334-0.10001 0.43332-0.29999 0.29999z"/>
  <path id="svg_4" fill="#f98c0e" stroke="#f98c0e" d="m162.2 755.8l-0.2-0.3-0.2-0.3-0.3-0.2-0.3-0.2-0.2-0.3-1-0.5-1-0.5v-0.5l1-0.2 1-0.3-0.2-0.3-0.3-0.2-0.3-0.2-0.2-0.3 1.5-0.5 1.5-0.5 0.2-0.3 0.3-0.2 0.3 0.2 0.2 0.3 1.5 0.3 1.5 0.2-0.2-1-0.3-1-0.5-2-0.5-2-0.3-0.2-0.2-0.3-0.2-0.3-0.3-0.2-0.3-0.2-0.2-0.3-0.2-0.3-0.3-0.2-0.3-0.2-0.2-0.3-0.2-0.3-0.3-0.2-0.3-1-0.2-1h0.5l0.3 0.2 0.2 0.3 0.2 0.3 0.3 0.2 0.3 0.2 0.2 0.3 0.2 0.3 0.3 0.2 0.3 0.2 0.2 0.3 0.2 0.3 0.3 0.2 0.3 0.2 0.2 0.3 0.2 0.3 0.3 0.2 0.3 0.2 0.2 0.3 0.2 0.3 0.3 0.2 0.3 0.2 0.2 0.3 1 0.5c0.66667 0.33331 6.3333 4 17 11s24 14.5 40 22.5 28.667 13.667 38 17c9.3333 3.3333 22.667 7.1667 40 11.5s30 7 38 8 21 1.8333 39 2.5c18 0.66669 34.333 0.5 49-0.5s25.667-2.3333 33-4c7.3333-1.6667 20.5-5.1667 39.5-10.5s36.333-11.667 52-19c15.667-7.3333 31.167-16 46.5-26s28.933-20.233 40.8-30.7c11.8-10.533 24.133-23.067 37-37.6 12.8-14.467 21.867-25.7 27.2-33.7 5.3333-8 10.933-16.9 16.8-26.7 5.8-9.8666 11.367-20.633 16.7-32.3 5.3333-11.667 10.833-27.5 16.5-47.5 5.6667-20 9.6667-36.5 12-49.5s3.5-32.167 3.5-57.5-1.3333-45.333-4-60-6-29.167-10-43.5-8.6667-28-14-41-12-26.5-20-40.5-15.5-25.667-22.5-35c-7-9.3333-11.267-14.667-12.8-16-1.4667-1.3333-5.2667-5.6667-11.4-13-6.2-7.3333-14.733-15.833-25.6-25.5-10.8-9.6667-16.2-14.833-16.2-15.5 0-0.66667-3.1667-3.2667-9.5-7.8-6.3333-4.4667-10.833-6.9333-13.5-7.4-2.6667-0.53334-4-1.1333-4-1.8 0-0.66667-0.33331-1-1-1s-1.1667-0.39999-1.5-1.2l-0.5-1.3-0.2-0.3-0.3-0.2-0.3-0.2-0.2-0.3h-8l0.2 0.3 0.3 0.2 0.3 1.5c0.13336 1 0.53332 1.5667 1.2 1.7l1 0.3 0.2 0.3 0.3 0.2 0.3 1 0.2 1-1-0.2-1-0.3-0.2-0.3-0.3-0.2-0.3-0.2-0.2-0.3-0.2-0.3-0.3-0.2-0.3-0.2-0.2-0.3-0.2-0.3-0.3-0.2-0.3-0.2c-0.13336-0.2-1.2667-1.0667-3.4-2.6-2.2-1.4667-6.5333-3.8667-13-7.2l-9.8-5-0.2-0.5c-0.20001-0.33334-0.39996-0.5-0.59998-0.5h-0.20001l-0.2-0.5c-0.20001-0.33334-0.39996-0.83334-0.59998-1.5-0.13336-0.66666 0.1333-1 0.79999-1s1-1 1-3-0.5-3-1.5-3-1.5666-0.33334-1.7-1c-0.20001-0.66666-2.8666-2.4-8-5.2-5.2-2.8667-12.467-6.1334-21.8-9.8-9.3333-3.6667-23.167-8-41.5-13s-35.167-8.6667-50.5-11-34.833-3.1667-58.5-2.5c-23.667 0.66666-41.5 2.1667-53.5 4.5s-26.833 6-44.5 11-32.667 10.333-45 16c-12.333 5.6667-25.667 12.5-40 20.5s-25.9 15.567-34.7 22.7l-13.3 10.8-0.3 0.2-0.2 0.3-0.2 0.3-0.3 0.2-0.5 1-0.5 1-0.3 0.2-0.2 0.3-1 0.3-1 0.2 0.2-1 0.3-1 0.3-0.2 0.2-0.3 0.2-0.3 0.3-0.2 0.3-0.2 0.2-0.3 0.2-0.3 0.3-0.2 0.3-0.2 0.2-0.3 0.2-0.3 0.3-0.2 0.3-0.2c0.13333-0.2 0.26666-0.40001 0.39999-0.60001l0.3-0.2 0.3-0.2 0.2-0.3h-2l-0.2 0.3c-0.2 0.13333-0.73334 0.36667-1.6 0.7-0.8 0.33333-1.2 0-1.2-1s-0.5-1.5-1.5-1.5h-1.5l0.2-1 0.3-1 0.3-0.2 0.2-0.3 0.2-0.3c0.2-0.13333 0.53334-1.0333 1-2.7l0.8-2.5 12-9.2c8-6.2 21.667-14.8 41-25.8s38.167-20 56.5-27 36.5-12.5 54.5-16.5 33.667-6.6667 47-8 28-1.8333 44-1.5c16 0.33333 31 1.3333 45 3s29.333 4.5 46 8.5 33.167 9.1667 49.5 15.5 34.167 15 53.5 26 34.067 20.4 44.2 28.2c10.2 7.8667 19.733 15.867 28.6 24 8.8 8.2 16.6 16.067 23.4 23.6 6.8666 7.4667 15.467 18.033 25.8 31.7s20 28.667 29 45 16.833 33.667 23.5 52c6.6667 18.333 12 37.167 16 56.5s6.3333 32.833 7 40.5c0.66669 7.6667 0.83331 22 0.5 43s-1.8333 39.167-4.5 54.5-6.1667 30.5-10.5 45.5-9.4 29.433-15.2 43.3c-5.8666 13.8-13.8 29.2-23.8 46.2s-19.933 31.6-29.8 43.8c-9.8 12.133-21.133 24.467-34 37-12.8 12.467-24.7 22.867-35.7 31.2-11 8.3333-23 16.5-36 24.5s-28.667 16-47 24-36.667 14.5-55 19.5-36.167 8.5-53.5 10.5-37 2.8333-59 2.5c-22-0.33331-41-1.8333-57-4.5s-32.5-6.5-49.5-11.5-34.333-11.5-52-19.5-32.333-15.667-44-23c-11.667-7.3333-19.233-12.233-22.7-14.7-3.5333-2.5333-5.4-3.8666-5.6-4zm408-639c-0.13336-0.2-0.13336-0.4 0-0.60001 0.20001-0.13332 0.29999-0.03334 0.29999 0.3s-0.099976 0.43333-0.29999 0.3zm39 18c-0.13336-0.2-0.13336-0.40001 0-0.60001 0.20001-0.13333 0.29999-0.033325 0.29999 0.3 0 0.33333-0.099976 0.43333-0.29999 0.3zm-457 14c-0.13333-0.2-0.13333-0.40001 0-0.60001 0.2-0.13333 0.3-0.033325 0.3 0.3 0 0.33333-0.10001 0.43333-0.3 0.3z"/>
  <path id="svg_5" fill="#fed000" stroke="#fed000" d="m569 119v1l-1-0.2c-0.66669-0.2-5.5-1.6334-14.5-4.3-9-2.6667-20.5-4.1667-34.5-4.5-14-0.33334-24.5 0.5-31.5 2.5s-14.167 4.8333-21.5 8.5c-7.3333 3.6667-14 8-20 13s-11.067 10.067-15.2 15.2l-6.3 7.8-0.5 1-0.5 1h-0.5l-0.2-1c-0.19998-0.66667-0.53332-1.6-1-2.8-0.53332-1.1333-1.4666-1.8667-2.8-2.2-1.3333-0.33333-4.1667-0.73334-8.5-1.2-4.3333-0.53334-6.5667-0.13333-6.7 1.2-0.19998 1.3333-0.73331 3.3333-1.6 6-0.80002 2.6667-2.0334 4.1667-3.7 4.5-1.6667 0.33333-2.5 0.83333-2.5 1.5v1l-2-0.2c-1.3333-0.2-1.9333-0.40001-1.8-0.60001 0.19998-0.13333-0.46668-0.46666-2-1-1.4667-0.46666-2.4667-1.1333-3-2-0.46668-0.8-0.86667-1.0333-1.2-0.7-0.33334 0.33333-1.0667-0.43333-2.2-2.3-1.2-1.8-3.8-2.7-7.8-2.7s-10.067 1.4333-18.2 4.3c-8.2 2.8-12.8 5.7-13.8 8.7s-1.5 6-1.5 9v4.5l-0.3 0.2-0.2 0.3-0.2 0.3-0.3 0.2-0.3 1.5-0.2 1.5-1-0.2-1-0.3-0.2-0.3-0.3-0.2-0.3-0.2-0.2-0.3-0.2-0.3-0.3-0.2-0.3 0.2-0.2 0.3-0.2 0.3-0.3 0.2-0.3-1-0.2-1-1 0.2c-0.66666 0.2-1.3333 0.3-2 0.3-0.66666 0-1.2667-0.43333-1.8-1.3-0.46668-0.8-1.2-1.3667-2.2-1.7-1-0.33333-2.3333-2.1667-4-5.5s-3-5.5-4-6.5-2.1667-2.8333-3.5-5.5l-2-4-0.5-1-0.5-1h-0.5l-0.2-0.5-0.3-0.5-0.3-0.2-0.2-0.3h3l1 1c0.66666 0.66667 1.3333 1 2 1h3l0.2 0.3 0.3 0.2v-2l-0.5-1-0.5-1-0.3-0.2-0.2-0.3-0.2-0.3-0.3-0.2-5.5-8c-3.6667-5.3333-8.0667-10.067-13.2-14.2-5.2-4.2-11.8-6.0667-19.8-5.6-8 0.53333-11.833 0.066673-11.5-1.4 0.33334-1.5333 0-2.4667-1-2.8-1-0.33334-3.5-0.16666-7.5 0.5s-11.4 4.1-22.2 10.3c-10.867 6.1333-21.8 13.2-32.8 21.2s-21.667 16.667-32 26c-10.333 9.3333-19.333 18.5-27 27.5-7.6667 9-14.833 18.5-21.5 28.5-6.6667 10-12.667 19.667-18 29-5.3333 9.3333-10.833 21.667-16.5 37-5.6667 15.333-10.333 31.5-14 48.5-3.6667 17-6 30.333-7 40-1 9.6667-1.3333 21.167-1 34.5 0.33334 13.333 1.5 27.167 3.5 41.5s6.5 32 13.5 53 13.733 37.433 20.2 49.3c6.5333 11.8 13.3 22.7 20.3 32.7s12 17.1 15 21.3c3 4.1334 5.7667 7.3667 8.3 9.7 2.4667 2.3333 7.1333 7.1 14 14.3 6.8 7.1334 16.367 15.367 28.7 24.7 12.333 9.3333 21.667 16 28 20 6.3333 4 12.5 7.8333 18.5 11.5s15.167 8.1667 27.5 13.5 23.667 9.8333 34 13.5 24.833 7.1667 43.5 10.5 40 4.8333 64 4.5c24-0.33331 44.667-2.3333 62-6s31.333-7.5 42-11.5 25-10.5 43-19.5 33.5-18.167 46.5-27.5c13-9.3333 20.833-14.9 23.5-16.7 2.6667-1.8666 5-4.0666 7-6.6 2-2.4667 8.2667-9.1334 18.8-20 10.467-10.8 19.2-21.367 26.2-31.7s13.167-20.167 18.5-29.5c5.3333-9.3333 11-21.5 17-36.5s10.333-27 13-36c2.6667-9 5.1667-20.5 7.5-34.5s3.5-31.833 3.5-53.5-1.3333-40-4-55-6.5-30-11.5-45-11.333-30.167-19-45.5c-7.6667-15.333-13.667-26.5-18-33.5-4.3333-7-6.7333-11.9-7.2-14.7-0.53332-2.8667-0.86664-4.4-1-4.6-0.20001-0.13333-0.39996-0.26666-0.59998-0.39999l-0.2-0.3-0.2-0.3-0.3-0.2-0.3-0.2-0.2-0.3-0.2-0.3-0.3-0.2-0.3-0.2-0.2-0.3-1-0.5-1-0.5-0.2-0.3-0.3-0.2-0.3-0.2c-0.13336-0.2-0.3667-0.40001-0.70001-0.60001l-0.5-0.2-0.2-0.5c-0.20001-0.33333-0.39996-0.5-0.59998-0.5h-0.20001l-0.2-0.5c-0.20001-0.33333-2.5333-2.4333-7-6.3-4.5333-3.8-10.133-7.0333-16.8-9.7-6.6667-2.6667-9.3333-4.5-8-5.5s1.6667-1.6 1-1.8l-1-0.2v-0.5l-1-0.5-1-0.5-1-0.5-1-0.5 0.2-0.3 0.3-0.2 0.3-0.2 0.2-0.3-1-0.5-1-0.5-0.2-0.3-0.3-0.2-0.3-0.2c-0.13336-0.2-0.8667-0.8-2.2-1.8s-3.3333-3.0667-6-6.2c-2.6667-3.2-4.3333-4.8667-5-5-0.66669-0.2-1.8333-1.4-3.5-3.6-1.6667-2.1333-2.8333-3.2-3.5-3.2-0.66669 0-1-0.33333-1-1s-0.33331-1.0667-1-1.2l-1-0.3-0.2-0.3-0.3-0.2-0.5-1-0.5-1-0.3-1.5-0.2-1.5h-2v-2l1 0.2 1 0.3 0.2 0.3 0.3 0.2 0.3 0.2 0.2 0.3 1 0.5c0.66669 0.33333 1.5 0.66667 2.5 1l1.5 0.5 1 0.5 1 0.5 1 0.5 1 0.5h2l-0.2-0.3-0.3-0.2-0.3-0.2-0.2-0.3-0.2-0.3-0.3-0.2-0.5-1-0.5-1-0.3-0.2-0.2-0.3-0.2-0.3-0.3-0.2-0.3-0.2-0.2-0.3-0.2-0.3-0.3-0.2-0.3-0.2-0.2-0.3-0.2-0.3-0.3-0.2-0.5-1c-0.33331-0.66667-2.3333-3-6-7l-5.5-6h-0.5l-0.2-0.5-0.3-0.5h-0.5l-0.2-0.5-0.3-0.5h-0.5l-0.2-0.5-0.3-0.5-0.5-1.5-0.5-1.5-0.3-0.2-0.2-0.3h8l0.2 0.3 0.3 0.2 0.3 0.2 0.2 0.3 0.5 1.3c0.33331 0.8 1.1 1.0333 2.3 0.7 1.1334-0.33333 1.8-0.16667 2 0.5 0.13336 0.66667 1.7 1.7333 4.7 3.2 3 1.5333 7.1667 4.2 12.5 8 5.3333 3.8667 8 6.1333 8 6.8 0 0.66667 5.4 5.8333 16.2 15.5 10.867 9.6667 19.4 18.167 25.6 25.5 6.1334 7.3333 9.9334 11.667 11.4 13 1.5333 1.3333 5.8 6.6667 12.8 16s14.5 21 22.5 35 14.667 27.5 20 40.5c5.3333 13 10 26.667 14 41s7.3333 28.833 10 43.5 4 34.667 4 60-1.1667 44.5-3.5 57.5-6.3333 29.5-12 49.5-11.167 35.833-16.5 47.5c-5.3333 11.667-10.9 22.433-16.7 32.3-5.8666 9.8-11.467 18.7-16.8 26.7-5.3333 8-14.4 19.233-27.2 33.7-12.867 14.533-25.2 27.067-37 37.6-11.867 10.467-25.467 20.7-40.8 30.7s-30.833 18.667-46.5 26c-15.667 7.3333-33 13.667-52 19-19 5.3333-32.167 8.8333-39.5 10.5-7.3333 1.6667-18.333 3-33 4s-31 1.1667-49 0.5c-18-0.66669-31-1.5-39-2.5s-20.667-3.6667-38-8-30.667-8.1667-40-11.5c-9.3333-3.3333-22-9-38-17s-29.333-15.5-40-22.5-16.333-10.667-17-11l-1-0.5-0.2-0.3-0.3-0.2-0.3-0.2-0.2-0.3-0.2-0.3-0.3-0.2-0.3-0.2-0.2-0.3-0.2-0.3-0.3-0.2-0.3-0.2-0.2-0.3-0.2-0.3-0.3-0.2-0.3-0.2-0.2-0.3-0.2-0.3-0.3-0.2-0.3-0.2-0.2-0.3-0.2-0.3-0.3-0.2h-0.5l-0.2-0.5c-0.2-0.33331-3.0667-2.7667-8.6-7.3-5.4667-4.4667-14.033-12.533-25.7-24.2s-22.333-23.833-32-36.5c-9.6667-12.667-18.433-25.567-26.3-38.7-7.8-13.2-15.033-27.967-21.7-44.3-6.6667-16.333-11.833-30.667-15.5-43-3.6667-12.333-6.6667-26.167-9-41.5s-3.6667-28-4-38c-0.33333-10 0-20.5 1-31.5s2.3333-20.833 4-29.5c1.6667-8.6667 3.5-19.667 5.5-33s3.8333-23.333 5.5-30c1.6667-6.6667 2.8333-12.5 3.5-17.5 0.66667-5 2.5-11.5 5.5-19.5s8.1667-19.333 15.5-34 17.333-30.667 30-48 25.9-32.667 39.7-46l20.8-20 0.5-0.2c0.33333-0.2 0.5-0.40001 0.5-0.60001v-0.2l0.5-0.2c0.33333-0.2 0.5-0.40001 0.5-0.60001v-0.2l0.5-0.2c0.33333-0.2 0.56667-0.40001 0.7-0.60001l0.3-0.2 0.3-0.2 0.2-0.3 0.2-0.3 0.3-0.2 13.3-10.8c8.8-7.1333 20.367-14.7 34.7-22.7s27.667-14.833 40-20.5c12.333-5.6667 27.333-11 45-16s32.5-8.6667 44.5-11 29.833-3.8333 53.5-4.5c23.667-0.66666 43.167 0.16666 58.5 2.5s32.167 6 50.5 11 32.167 9.3333 41.5 13c9.3333 3.6667 16.6 6.9333 21.8 9.8 5.1334 2.8 7.8 4.5333 8 5.2 0.13336 0.66666 0.70001 1 1.7 1 1 0 1.3333 0.66666 1 2-0.33331 1.3333 0 2 1 2s1.3333 0.4 1 1.2c-0.33331 0.86668-1 1.2-2 1-1-0.13332-1.5 0.13335-1.5 0.8 0 0.66666 0.33331 1 1 1s1 0.33334 1 1z"/>
  <path id="svg_6" fill="#fefefe" stroke="#fefefe" d="m630.8 256.8l0.2-0.3 0.2-0.3 0.3-0.2v2l-0.5 2-0.5 2-1 3c-0.66669 2-1.1 3.3333-1.3 4l-0.2 1h-0.20001c-0.20001 0-0.6333 0.66666-1.3 2-0.66669 1.3333-6.8333 10.5-18.5 27.5s-21.4 29.767-29.2 38.3c-7.8666 8.4667-15.067 15.267-21.6 20.4-6.4667 5.2-13.267 10.067-20.4 14.6-7.2 4.4667-20.967 10.2-41.3 17.2s-38.667 11.333-55 13c-16.333 1.6667-34.667 1.8333-55 0.5s-40-3.8333-59-7.5-40.167-8.8333-63.5-15.5l-35-10-1.5-0.5-1.5-0.5-1-0.3-1-0.2h-0.5l-0.5-1-0.5-1-0.5-1-0.5-1-0.3-1-0.2-1 1 0.2 1 0.3 39.5 4.5c26.333 3 46 4.8333 59 5.5 13 0.66666 33.167 0.83334 60.5 0.5s48.833-1.5 64.5-3.5 24.333-3.1667 26-3.5c1.6667-0.33334 2.6667-0.60001 3-0.79999l0.5-0.2 1.5-0.2 1.5-0.3 17-4.5c11.333-3 20.667-6.3333 28-10 7.3333-3.6667 16.267-9.7333 26.8-18.2 10.467-8.5333 23.133-19.533 38-33 14.8-13.533 24.8-23.067 30-28.6 5.1334-5.4667 7.8-8.2667 8-8.4l0.2-0.3 0.2-0.3 0.3-0.2 0.3-0.2 0.2-0.3 0.2-0.3 0.3-0.2 0.3-0.2 0.2-0.3 0.2-0.3 0.3-0.2 0.3-0.2 0.2-0.3 0.2-0.3 0.3-0.2 0.5-1 0.5-1 0.3-0.2z"/>
  <path id="svg_7" fill="#fde500" stroke="#fde500" d="m315 147l5.5 8 0.3 0.2 0.2 0.3 0.2 0.3 0.3 0.2 0.5 1 0.5 1 0.3 1.5c0.13333 1-0.96664 0.89999-3.3-0.3l-3.5-1.7h-3l0.2 0.3 0.3 0.2 0.3 0.5 0.2 0.5-0.2 0.5c-0.19998 0.33333-1.2 0.23334-3-0.3-1.8667-0.46666-3.0666-0.26666-3.6 0.60001-0.46668 0.8-5.2667 3.6-14.4 8.4-9.2 4.8667-13.633 7.7333-13.3 8.6 0.33334 0.8-0.10001 1.5333-1.3 2.2-1.1333 0.66667-3.1333 1.6-6 2.8l-4.2 1.7-0.2 0.3-0.3 0.2-0.3 0.2-0.2 0.3-1.5 0.5-1.5 0.5-1 0.5-1 0.5 1.5 0.5 1.5 0.5v0.5l-12.5 2.2c-8.3333 1.5333-18.1 4.5333-29.3 9-11.133 4.5333-19.533 8.8-25.2 12.8-5.6667 4-11.4 8.1667-17.2 12.5-5.8667 4.3333-12.533 11.333-20 21-7.5333 9.6667-13.467 19.167-17.8 28.5-4.3333 9.3333-7.3333 16.5-9 21.5s-2.6667 8.5-3 10.5l-0.5 3-0.5 3-0.5 3v3l0.3-0.2 0.2-0.3 0.2-0.3 0.3-0.2 0.5-1 0.5-1 0.5-1 0.5-1 0.5-1 0.5-1 0.5-1c0.33333-0.66666 1-1.8333 2-3.5s6.5-9 16.5-22 18.5-23 25.5-30l10.5-10.5 0.3-0.2 0.2-0.3 0.2-0.3 0.3-0.2 0.3-0.2 0.2-0.3 0.2-0.3 0.3-0.2 0.3-0.2 0.2-0.3 1-0.5 1-0.5 0.2-0.3 0.3-0.2 0.3-0.2 0.2-0.3 0.2-0.3 0.3-0.2h0.5l-0.2 1-0.3 1-0.5 1-0.5 1-0.3 0.2-0.2 0.3 0.2 0.3 0.3 0.2 0.3 0.2 0.2 0.3-0.2 0.3-0.3 0.2-0.3 0.2-0.2 0.3-0.2 0.3-0.3 0.2-0.3 0.2-0.2 0.3-2.2 3.7c-1.5333 2.5333-2.4 3.8-2.6 3.8h-0.2l-0.2 1-0.3 1-0.3 0.2-0.2 0.3-0.2 0.3-0.3 0.2-0.7 1.2c-0.53334 0.86667-0.46668 1.4 0.2 1.6 0.66667 0.13333 1 0.70001 1 1.7 0 1-0.33333 1.5-1 1.5s-2.0667 2.5-4.2 7.5c-2.2 5-3.4 7.9-3.6 8.7-0.13333 0.86667-0.46666 1.5333-1 2-0.46666 0.53332-0.8 1.3-1 2.3-0.13333 1 0.2 1.6667 1 2 0.86667 0.33334 0.73334 1.1-0.39999 2.3-1.2 1.1333-1.4667 1.8-0.8 2 0.66667 0.13333-0.60001 2.2-3.8 6.2-3.1333 4-4.8 6.0667-5 6.2l-0.2 0.3-0.2 0.3-0.3 0.2-0.3 0.2-0.2 0.3-0.2 0.3-0.3 0.2-0.3 0.2-0.2 0.3-0.2 0.3-0.3 0.2-0.3 0.2-0.2 0.3-0.2 0.3-0.3 0.2-0.3 0.2-0.2 0.3-0.2 0.3-0.3 0.2-0.3 1-0.2 1-6.2 10c-4.2 6.6667-6.9667 12.167-8.3 16.5-1.3333 4.3333-1.8333 8.5-1.5 12.5 0.33333 4 1.4 7.4 3.2 10.2 1.8667 2.8667 5.1333 4.6333 9.8 5.3 4.6667 0.66666 8 0.76666 10 0.29999 2-0.53332 3.0667-1.3 3.2-2.3l0.3-1.5 0.3-0.2 0.2-0.3 0.2-0.3 0.3-0.2 0.3 0.2 0.2 0.3 0.2 0.3 0.3 0.2 0.5 1 0.5 1h0.5l0.2 3.5c0.2 2.3333 0.46668 4.1667 0.8 5.5l0.5 2 0.5 1 0.5 1 0.3 1 0.2 1 1 0.2 1 0.3 2.5 0.3 2.5 0.2 0.2-1 0.3-1 0.5-1 0.5-1 0.5-5 0.5-5 0.5-1.5 0.5-1.5 0.5-1.5 0.5-1.5 0.3 0.2 0.2 0.3 0.2 0.3 0.3 0.2 0.5 1 0.5 1 0.5 1 0.5 1 0.5 1 0.5 1 21.7 33.8c14.533 22.467 30.533 45.8 48 70 17.533 24.133 31.867 43.133 43 57 11.2 13.8 25.467 29.367 42.8 46.7s32.167 30.667 44.5 40c12.333 9.3333 23.833 17 34.5 23s22.167 10.5 34.5 13.5 24.167 4.3333 35.5 4c11.333-0.33331 21.333-2 30-5 8.6667-3 15-5.5 19-7.5s10.667-3 20-3c9.3333 0 15.167-0.16669 17.5-0.5l3.5-0.5 1.5-0.3 1.5-0.2 0.5-0.2c0.33331-0.20001 0.5-0.39996 0.5-0.59998v-0.20001l1.5-0.2c1-0.20001 3.5-1.3 7.5-3.3s7.8333-5.1667 11.5-9.5 6.4334-9.0666 8.3-14.2c1.8-5.2 2.7-11.8 2.7-19.8s-0.83331-14.333-2.5-19c-1.6667-4.6667-1.3333-10.833 1-18.5 2.3333-7.6667 3.8333-15.167 4.5-22.5 0.66669-7.3333 0-15.667-2-25-2-9.3333-3.6667-20.667-5-34s-1.9-21.167-1.7-23.5l0.2-3.5 0.2-4.5c0.20001-3 0.46668-7.1667 0.79999-12.5s2-20.667 5-46 8-56.833 15-94.5l10.5-56.5 0.3-1 0.2-1 1 0.2 1 0.3 1.5 0.5 1.5 0.5 4 4c2.6667 2.6667 4.0666 4.1 4.2 4.3l0.3 0.2 0.3 0.2 0.2 0.3 0.2 0.3 0.3 0.2 0.3 0.2 0.2 0.3 0.2 0.3 0.3 0.2 0.3 0.2 0.2 0.3h2l0.2-0.3 0.3-0.2 0.3-0.2 0.2-0.3 0.2-0.3 0.3-0.2 0.5-1.5 0.5-1.5v-2.5c0-1.6667-0.43335-3.3333-1.3-5l-1.2-2.5v-0.5l1-0.5 1-0.5-0.2-0.3-0.3-0.2-0.3-1-0.2-1 1-0.2 1-0.3 0.2-0.3 0.3-0.2v-1l-0.5-1.5-0.5-1.5-0.3-0.2-0.2-0.3-0.2-0.3-0.3-0.2-0.3-1-0.2-1h2l0.2 1 0.3 1 0.3 0.2 0.2 0.3 1 0.5 1 0.5 0.2 0.3 0.3 0.2 0.3 0.2 0.2 0.3 0.2 0.3 0.3 0.2 0.3 0.2 0.2 0.3 0.2 0.3c0.20001 0.13333 0.39996 0.26666 0.59998 0.39999 0.13336 0.2 0.46668 1.7333 1 4.6 0.46668 2.8 2.8667 7.7 7.2 14.7s10.333 18.167 18 33.5c7.6667 15.333 14 30.5 19 45.5s8.8333 30 11.5 45 4 33.333 4 55-1.1667 39.5-3.5 53.5-4.8333 25.5-7.5 34.5-7 21-13 36-11.667 27.167-17 36.5c-5.3333 9.3333-11.5 19.167-18.5 29.5s-15.733 20.9-26.2 31.7c-10.533 10.867-16.8 17.533-18.8 20-2 2.5333-4.3333 4.7333-7 6.6-2.6667 1.8-10.5 7.3667-23.5 16.7s-28.5 18.5-46.5 27.5-32.333 15.5-43 19.5-24.667 7.8333-42 11.5-38 5.6667-62 6c-24 0.33331-45.333-1.1667-64-4.5s-33.167-6.8333-43.5-10.5-21.667-8.1667-34-13.5-21.5-9.8333-27.5-13.5-12.167-7.5-18.5-11.5c-6.3333-4-15.667-10.667-28-20-12.333-9.3333-21.9-17.567-28.7-24.7-6.8667-7.2-11.533-11.967-14-14.3-2.5333-2.3333-5.3-5.5666-8.3-9.7-3-4.2-8-11.3-15-21.3s-13.767-20.9-20.3-32.7c-6.4667-11.867-13.2-28.3-20.2-49.3s-11.5-38.667-13.5-53-3.1667-28.167-3.5-41.5c-0.33334-13.333 0-24.833 1-34.5 1-9.6667 3.3333-23 7-40s8.3333-33.167 14-48.5 11.167-27.667 16.5-37c5.3333-9.3333 11.333-19 18-29 6.6667-10 13.833-19.5 21.5-28.5 7.6667-9 16.667-18.167 27-27.5 10.333-9.3333 21-18 32-26s21.933-15.067 32.8-21.2c10.8-6.2 18.2-9.6334 22.2-10.3 4-0.66666 6.5-0.83334 7.5-0.5s1.3333 1.2667 1 2.8c-0.33334 1.4667 3.5 1.9333 11.5 1.4 8-0.46667 14.6 1.4 19.8 5.6 5.1333 4.1333 9.5334 8.8667 13.2 14.2z"/>
  <path id="svg_8" fill="#fdfd01" stroke="#fdfd01" d="m566 214v-4h4v3l2 0.5c1.3333 0.33333 2 0.16667 2-0.5s2-0.39999 6 0.8c4 1.1333 6.5 2.5333 7.5 4.2s2.4334 2.9333 4.3 3.8c1.8 0.8 2.8667 1.8667 3.2 3.2l0.5 2 0.3 0.2 0.2 0.3 1 0.5 1 0.5 0.2 0.3 0.3 0.2 0.3-0.2 0.2-0.3 0.2-0.3 0.3-0.2 0.5-2.5 0.5-2.5 0.3-1 0.2-1h4l2.2 3c1.5333 2 2.5333 2.7333 3 2.2 0.53332-0.46666 1.4-0.26666 2.6 0.60001 1.1334 0.8 1.8 1.5333 2 2.2l0.2 1 0.2 1c0.20001 0.66667 0.1333 3-0.20001 7s-1.7333 6.6667-4.2 8c-2.5333 1.3333-3.8666 2.5-4 3.5-0.20001 1-1.2 2.1-3 3.3-1.8666 1.1333-3.8 2.9333-5.8 5.4-2 2.5333-4.0666 4.6333-6.2 6.3-2.2 1.6667-5.5333 4.2333-10 7.7l-6.8 5.3-0.2 0.3-0.3 0.2-0.3 0.2-0.2 0.3h-3l0.2-0.3c0.20001-0.13333 0.29999-0.70001 0.29999-1.7v-1.5l-0.3 0.2-0.2 0.3-1 0.5c-0.66669 0.33334-5.5 0.66666-14.5 1s-23 1-42 2l-28.5 1.5-4.5 0.5-4.5 0.5 3 0.5 3 0.5 2 0.5c1.3333 0.33334 2.8333 0.66666 4.5 1l2.5 0.5 0.2 0.3 0.3 0.2 0.3 0.2 0.2 0.3-1.5 0.5-1.5 0.5-5 0.5c-3.3333 0.33334-5.6667 0.66666-7 1l-2 0.5-0.2 0.3-0.3 0.2-0.3 0.2-0.2 0.3-1 0.5-1 0.5 2.5 1c1.6667 0.66666 3 1.1667 4 1.5l1.5 0.5-2.5 0.5c-1.6667 0.33334-3.5 0.66666-5.5 1l-3 0.5 2.5 0.5 2.5 0.5 3 0.5 3 0.5 3.5 0.3 3.5 0.2v0.5l-1 0.5-1 0.5-1 0.5-1 0.5-3 0.5c-2 0.33334-8.5 1.1667-19.5 2.5s-23.5 2.6667-37.5 4-22.667 2.4333-26 3.3l-5 1.2-0.5 0.2c-0.33334 0.19998-0.5 0.39999-0.5 0.59998v0.20001l-2-0.2-2-0.3 0.2-0.3c0.19998-0.13333 0.29999-0.36667 0.29999-0.70001s0.33334-1 1-2 0.10001-1.7667-1.7-2.3c-1.8667-0.46668-4.6333-0.70001-8.3-0.70001s-7.6667 0.33334-12 1-6.7667 1.4333-7.3 2.3c-0.46668 0.80002-1.8 1.2667-4 1.4-2.1333 0.19998-3.2667 0.53332-3.4 1-0.19998 0.53332-1.0666 0.86667-2.6 1-1.4667 0.19998-2.3667 0.73331-2.7 1.6-0.33334 0.80002-0.83334 1.1333-1.5 1-0.66666-0.19998-5 1.3667-13 4.7s-14.167 6.8333-18.5 10.5c-4.3333 3.6667-7.4333 8.0667-9.3 13.2l-2.7 7.8-0.5 1-0.5 1-0.3 0.2-0.2 0.3-0.2 0.3-0.3 0.2-0.3 0.5-0.2 0.5-3.5-0.2c-2.3333-0.19998-18.167-0.96664-47.5-2.3l-44-2-4-0.5-4-0.5 0.2-0.3 0.3-0.2 0.3-0.2 0.2-0.3 1-0.5 1-0.5 0.2-0.3 0.3-0.2 0.3-0.2 0.2-0.3 1.5-0.5c1-0.33334 3-0.60001 6-0.79999l4.5-0.2 0.2-1 0.3-1v-2l-0.3-0.2-0.2-0.3-0.2-0.3-0.3-0.2-0.3-0.2-0.2-0.3-0.2-0.3-0.3-0.2-0.3-0.2-0.2-0.3-0.2-0.3-0.3-0.2-0.3-0.2-0.2-0.3-0.2-0.3-0.3-0.2-0.3-0.2-0.2-0.3-1-0.5c-0.66667-0.33334-2.5-0.33334-5.5 0l-4.5 0.5-1.5 0.3-1.5 0.2 0.2-0.5 0.3-0.5 0.5-1 0.5-1 0.5-2c0.33333-1.3333 0.83333-2.6667 1.5-4s1.1667-5.3333 1.5-12c0.33333-6.6667-0.83333-11.5-3.5-14.5s-5.7667-4.7667-9.3-5.3c-3.4667-0.46668-7.3667 0.63333-11.7 3.3l-6.5 4-1 0.5-1 0.5-1 0.3-1 0.2v2l-1 0.2-1 0.3-0.5 0.3-0.5 0.2 0.2-1 0.3-1 0.3-0.2 0.2-0.3 0.2-0.3 0.3-0.2 0.3-0.2 0.2-0.3 0.2-0.3 0.3-0.2 0.3-0.2 0.2-0.3 0.2-0.3 0.3-0.2 0.3-0.2 0.2-0.3 0.2-0.3 0.3-0.2 0.3-0.2 0.2-0.3 0.2-0.3c0.2-0.13333 1.8667-2.2 5-6.2 3.2-4 4.4667-6.0667 3.8-6.2-0.66667-0.19998-0.39999-0.86667 0.8-2 1.1333-1.2 1.2667-1.9666 0.39999-2.3-0.8-0.33334-1.1333-1-1-2 0.2-1 1.1333-3.3333 2.8-7s3-7 4-10 1.8333-5.3333 2.5-7l1-2.5 0.3-0.2 0.2-0.3 0.2-0.3 0.3-0.2 0.3-1 0.2-1 0.5-0.2 0.5-0.3 1-0.3 1-0.2-0.2 1-0.3 1-0.3 0.2-0.2 0.3 1 0.5 1 0.5-0.2 0.3-0.3 0.2 0.3 1.8c0.13333 1.1333 0.7 1.6 1.7 1.4 1-0.13333 1.6667 0.86667 2 3 0.33333 2.2 0.83333 3.2 1.5 3 0.66667-0.13333 1 0.13333 1 0.79999s-0.33333 1.0667-1 1.2c-0.66667 0.19998-1 0.39999-1 0.59998v3.2h1c0.66667 0 1.0667-0.33334 1.2-1 0.2-0.66666 0.40001-1 0.60001-1h2.7c1 0 1.5 0.33334 1.5 1s1.6667 0.73334 5 0.20001c3.3333-0.46668 6.3333-1.3667 9-2.7s4.6667-2.1 6-2.3l2-0.2-0.2 1-0.3 1-0.3 0.2-0.2 0.3-0.2 0.3-0.3 0.2-0.3 0.2-0.2 0.3 1.5 0.5 1.5 0.5 0.8 1.7c0.46666 1.2 0.033325 3.3-1.3 6.3s-2.1 4.8333-2.3 5.5l-0.2 1 1-0.2 1-0.3 1-0.3c0.66667-0.13333 1.0667 0.63333 1.2 2.3 0.2 1.6667 0.53334 2.1 1 1.3 0.53334-0.86667 1.8-1.4 3.8-1.6l3-0.2v10c0 6.6667-1.5 10-4.5 10s-4.6667 1.2667-5 3.8c-0.33333 2.4667-1.3333 3.8-3 4l-2.5 0.2v12h7.5c5 0 7.5667 0.33334 7.7 1 0.2 0.66666 0.40001 3.3333 0.60001 8l0.2 7 29-0.5c19.333-0.33334 29.167-3.3333 29.5-9 0.33334-5.6667 1.5-8.5 3.5-8.5s3-1 3-3 1.5-3 4.5-3 4.6667-0.83334 5-2.5c0.33334-1.6667 1.5-2.5 3.5-2.5s3-0.5 3-1.5 4.0667-1.6667 12.2-2c8.2-0.33334 12.4-1.6667 12.6-4 0.13333-2.3333 3.0334-3.5 8.7-3.5 5.6667 0 8.5-1.3333 8.5-4s5.3333-4 16-4 16-0.66666 16-2 1-2 3-2 3-0.66666 3-2 4.1667-2 12.5-2 12.5-1 12.5-3 10.333-3.3333 31-4c20.667-0.66666 31.167-1.2667 31.5-1.8 0.33334-0.46668 0.83334-0.53336 1.5-0.20001 0.66666 0.33334 2.0667 0.39999 4.2 0.20001 2.2-0.13333 3.4-0.53336 3.6-1.2 0.13333-0.66666 0.60001-0.83334 1.4-0.5 0.86667 0.33334 1.2 0.83334 1 1.5-0.13333 0.66666 0.73331 1 2.6 1 1.8 0 2.8-1 3-3 0.13333-2 10.533-3.4 31.2-4.2 20.667-0.86667 31.333-1.2 32-1 0.66669 0.13333 1.1667-1.0666 1.5-3.6 0.33331-2.4667 1.8333-3.8667 4.5-4.2 2.6667-0.33334 5.1667-0.39999 7.5-0.20001l3.5 0.2v-16l4-0.2c2.6667-0.2 5.1667-0.3 7.5-0.3h3.5l0.2-0.3 0.3-0.2v-8l-0.3-0.2-0.2-0.3-0.2-0.3-0.3-0.2-0.3-1c-0.13336-0.66667-1.7-1-4.7-1s-4.5-1.3333-4.5-4-0.66669-4-2-4-2.5-1.3333-3.5-4-3.6667-4-8-4h-6.5v-4zm-380.8 46.2c0.2-0.13333 0.40001-0.13333 0.60001 0 0.13333 0.19998 0.033325 0.29999-0.3 0.29999-0.33333 0-0.43333-0.10001-0.3-0.29999z"/>
  <path id="svg_9" fill="#c60006" stroke="#c60006" d="m207 337l1 0.5 0.2 0.3 0.3 0.2 0.3 0.2 0.2 0.3 0.2 0.3 0.3 0.2 0.3 0.2 0.2 0.3 0.2 0.3 0.3 0.2 0.3 0.2 0.2 0.3 0.2 0.3 0.3 0.2 0.3 0.2 0.2 0.3 0.2 0.3 0.3 0.2v2l-0.3 1-0.2 1-4.5 0.2c-3 0.19998-5 0.46664-6 0.79999l-1.5 0.5-0.2 0.3-0.3 0.2-0.3 0.2-0.2 0.3-1 0.5-1 0.5-0.2 0.3-0.3 0.2-0.3 0.2-0.2 0.3 4 0.5 4 0.5 44 2c29.333 1.3333 45.167 2.1 47.5 2.3l3.5 0.2 49-1.2c32.667-0.86667 54-1.9666 64-3.3 10-1.3333 16.333-2.1667 19-2.5l4-0.5 1-0.3 1-0.2 15.5-2.8c10.333-1.8 18.5-3.5334 24.5-5.2 6-1.6667 9.5-2.6 10.5-2.8l1.5-0.2-0.5 0.8c-0.33334 0.46668-0.23334 0.93335 0.29999 1.4 0.46668 0.53332-0.19998 1.4666-2 2.8-1.8667 1.3333-4.0666 4-6.6 8-2.4667 4-3.8667 6.3333-4.2 7l-0.5 1-0.5 1.5-0.5 1.5-0.3 0.2-0.2 0.3 1 0.5 1 0.5-0.2 0.3-0.3 0.2-0.3 1.5-0.2 1.5-0.5 0.2c-0.33334 0.19998-1.3333 0.46664-3 0.79999-1.6667 0.33334-10.333 1.5-26 3.5s-37.167 3.1667-64.5 3.5c-27.333 0.33334-47.5 0.16666-60.5-0.5s-32.667-2.5-59-5.5l-39.5-4.5-1-0.3-1-0.2 0.2 1 0.3 1 0.5 1 0.5 1 0.5 1 0.5 1h0.5v0.5l0.2 0.3 0.3 0.2 0.5 1 0.5 1 0.3 0.2 0.2 0.3 0.2 0.3 0.3 0.2 0.5 1 0.5 1 13.3 21.2c8.8 14.2 20.267 31.533 34.4 52 14.2 20.533 28.967 40.3 44.3 59.3s29.1 34.767 41.3 47.3c12.133 12.467 18.367 18.8 18.7 19l0.5 0.2 3 2.8c2 1.8 3.0667 2.8 3.2 3l0.3 0.2 9.3 7.2c6.1333 4.8666 13.867 10.3 23.2 16.3 9.3333 6 17.5 10.167 24.5 12.5 7 2.3333 12.833 3.8333 17.5 4.5 4.6667 0.66669 10.833 1 18.5 1h11.5l3.5-0.3 3.5-0.2-0.2-1-0.3-1-0.3-0.2-0.2-0.3-0.2-0.3-0.3-0.2-0.3-0.2-0.2-0.3-1-0.5-1-0.5-0.2-0.3-0.3-0.2-0.3-0.2-0.2-0.3-0.2-0.3c-0.19998-0.13336-1.7333-1.4667-4.6-4-2.8-2.4667-5.9334-6.2667-9.4-11.4-3.5333-5.2-6.4-9.6333-8.6-13.3l-3.2-5.5-0.2-1.5-0.3-1.5-0.3-0.2-0.2-0.3-0.2-0.3-0.3-0.2-0.5-1-0.5-1-0.3-0.2-0.2-0.3-0.2-0.3-0.3-0.2-0.3-0.2-0.2-0.3-0.2-0.3-0.3-0.2-0.3-0.2-0.2-0.3-1-0.5-1-0.5-1.5-0.5c-1-0.33331-4.8333-0.40002-11.5-0.20001l-10 0.2v-5h2l0.2 1 0.3 1 0.3-0.2 0.2-0.3 0.2-0.3 0.3-0.2 0.3-0.2 0.2-0.3 1-0.5 1-0.5 0.2-0.3 0.3-0.2 0.3-0.2 0.2-0.3 4.5-1.5c3-1 6.3333-1.3333 10-1 3.6667 0.33331 7.2333 2.2667 10.7 5.8 3.5333 3.4667 7.8 9.8667 12.8 19.2s10.6 17.067 16.8 23.2c6.1333 6.2 12.867 10.633 20.2 13.3 7.3333 2.6667 19.667 5 37 7s27.833 3.1667 31.5 3.5l5.5 0.5v0.5h-0.5l-0.3 0.5-0.2 0.5-1.5 0.2-1.5 0.3-3.5 0.5c-2.3333 0.33331-8.1667 0.5-17.5 0.5s-16 1-20 3-10.333 4.5-19 7.5c-8.6667 3-18.667 4.6667-30 5-11.333 0.33331-23.167-1-35.5-4s-23.833-7.5-34.5-13.5-22.167-13.667-34.5-23c-12.333-9.3333-27.167-22.667-44.5-40s-31.6-32.9-42.8-46.7c-11.133-13.867-25.467-32.867-43-57-17.467-24.2-33.467-47.533-48-70l-21.7-33.8-0.5-1-0.5-1-0.5-1-0.5-1-0.5-1-0.5-1-0.3-0.2-0.2-0.3-0.2-0.3-0.3-0.2-0.5 1.5-0.5 1.5-0.5 1.5-0.5 1.5-0.5 5-0.5 5-0.5 1-0.5 1-0.3 1-0.2 1-2.5-0.2-2.5-0.3-1-0.3-1-0.2-0.2-1-0.3-1-0.5-1-0.5-1-0.5-2c-0.33333-1.3333-0.60001-3.1667-0.8-5.5l-0.2-3.5 0.2-0.5c0.2-0.33334 0.46668-1.3333 0.8-3 0.33333-1.6667 1.5-4 3.5-7s4.9-6 8.7-9l5.8-4.5 1.5-0.2 1.5-0.3 4.5-0.5c3-0.33334 4.8333-0.33334 5.5 0z"/>
  <path id="svg_10" fill="#f88e0f" stroke="#f88e0f" d="m137.2 152l12.8-11-0.8 2.5c-0.46666 1.6667-0.8 2.5667-1 2.7l-0.2 0.3 0.5 1.3c0.33333 0.8 1.1667 1.0333 2.5 0.7 1.3333-0.33333 2-0.16667 2 0.5s0.33333 1.0667 1 1.2l1 0.3-0.2 0.3-0.3 0.2-0.3 0.2c-0.13333 0.2-0.26666 0.40001-0.39999 0.60001l-0.3 0.2-0.3 0.2-0.2 0.3-0.2 0.3-0.3 0.2-0.3 1-0.2 1h-0.2c-0.2 0-0.40001 0.16667-0.60001 0.5l-0.2 0.5h-0.2c-0.2 0-0.40001 0.16667-0.60001 0.5l-0.2 0.5-20.8 20c-13.8 13.333-27.033 28.667-39.7 46s-22.667 33.333-30 48c-7.3333 14.667-12.5 26-15.5 34s-4.8333 14.5-5.5 19.5c-0.66667 5-1.8333 10.833-3.5 17.5-1.6667 6.6667-3.5 16.667-5.5 30s-3.8333 24.333-5.5 33c-1.6667 8.6667-3 18.5-4 29.5s-1.3333 21.5-1 31.5c0.33333 10 1.6667 22.667 4 38s5.3333 29.167 9 41.5 8.8333 26.667 15.5 43 13.9 31.1 21.7 44.3c7.8667 13.133 16.633 26.033 26.3 38.7 9.6667 12.667 20.333 24.833 32 36.5s20.233 19.733 25.7 24.2c5.5333 4.5333 8.4 6.9667 8.6 7.3l0.2 0.5 0.2 1 0.3 1 0.3 0.2 0.2 0.3 0.2 0.3 0.3 0.2 0.3 0.2 0.2 0.3 0.2 0.3 0.3 0.2 0.3 0.2 0.2 0.3 0.2 0.3 0.3 0.2 0.5 2 0.5 2 0.3 1 0.2 1-1.5-0.2-1.5-0.3-0.2-0.3-0.3-0.2-0.3 0.2-0.2 0.3-1.5 0.5-1.5 0.5 0.2 0.3 0.3 0.2 0.3 0.2 0.2 0.3-1 0.3-1 0.2-0.5-0.2-0.5-0.3-0.2-0.3c-0.2-0.13336-3.5333-2.8-10-8-6.5333-5.1334-14.967-12.867-25.3-23.2s-19-19.333-26-27c-7-7.6667-15.833-19.5-26.5-35.5s-20.067-32.567-28.2-49.7c-8.2-17.2-15.3-35.8-21.3-55.8s-10.167-39.5-12.5-58.5c-2.3333-19-3.5-35.667-3.5-50s1.1667-31.5 3.5-51.5 6.5-39.833 12.5-59.5 13.333-38.5 22-56.5c8.6667-18 17-33.167 25-45.5s16.833-24.167 26.5-35.5c9.6667-11.333 15-18 16-20s1.6667-2.6667 2-2c0.33334 0.66667 2.5-1 6.5-5s10.233-9.6667 18.7-17zm13-0.8c0.2-0.13333 0.40001-0.13333 0.60001 0 0.13333 0.2 0.033325 0.3-0.3 0.3-0.33333 0-0.43333-0.10001-0.3-0.3z"/>
  <path id="svg_11" fill="#fefefe" stroke="#fefefe" d="m382 576.8l-3-2.8 22.5 3.2c15 2.2 28 3.4667 39 3.8 11 0.33331 18 0.40002 21 0.20001l4.5-0.2 3.2 5.5c2.2 3.6667 5.0666 8.1 8.6 13.3 3.4667 5.1334 6.6 8.9334 9.4 11.4 2.8667 2.5333 4.4 3.8666 4.6 4l0.2 0.3 0.2 0.3 0.3 0.2 0.3 0.2 0.2 0.3 1 0.5 1 0.5 0.2 0.3 0.3 0.2 0.3 0.2 0.2 0.3 0.2 0.3 0.3 0.2 0.3 1 0.2 1-3.5 0.2-3.5 0.3h-11.5c-7.6667 0-13.833-0.33331-18.5-1-4.6667-0.66669-10.5-2.1667-17.5-4.5s-15.167-6.5-24.5-12.5c-9.3333-6-17.067-11.433-23.2-16.3l-9.3-7.2-0.3-0.2c-0.13333-0.20001-1.2-1.2-3.2-3z"/>
  <path id="svg_12" fill="#c50106" stroke="#c50106" d="m664.8 221.2l0.2 0.3 0.2 0.3 0.3 0.2 0.3 0.2 0.2 0.3 0.2 0.3 0.3 0.2 0.3 0.2 0.2 0.3 0.5 0.3 0.5 0.2 1.2 2.5c0.86664 1.6667 1.3 3.3333 1.3 5v2.5l-0.5 1.5-0.5 1.5-0.3 0.2-0.2 0.3-0.2 0.3-0.3 0.2-0.3 0.2-0.2 0.3h-2l-0.2-0.3-0.3-0.2-0.3-0.2-0.2-0.3-0.2-0.3-0.3-0.2-0.3-0.2-0.2-0.3-0.2-0.3-0.3-0.2-0.3-0.2c-0.13336-0.2-1.5333-1.6333-4.2-4.3l-4-4-1.5-0.5-1.5-0.5-1-0.3-1-0.2-0.2 1-0.3 1-10.5 56.5c-7 37.667-12 69.167-15 94.5s-4.6667 40.667-5 46c-0.33331 5.3333-0.59998 9.5-0.79999 12.5l-0.2 4.5h-0.5l-0.5-1-0.5-1-0.5-1-0.5-1-0.3-0.2-0.2-0.3-1-0.3-1-0.2-0.2-3c-0.20001-2-0.53332-2.8333-1-2.5l-0.8 0.5h-0.20001c-0.20001 0-0.39996-0.33334-0.59998-1-0.13336-0.66666 0.1333-1 0.79999-1s1.4-8.3333 2.2-25c0.86664-16.667 3.3-40 7.3-70s6.2333-48.333 6.7-55l0.8-10 0.2-1c0.20001-0.66666 0.6333-2 1.3-4l1-3 0.5-2 0.5-2v-2l-0.3 0.2-0.2 0.3-0.2 0.3-0.3 0.2-0.5 1-0.5 1-0.3 0.2-0.2 0.3-0.2 0.3-0.3 0.2-0.3 0.2-0.2 0.3-0.2 0.3-0.3 0.2-0.3 0.2-0.2 0.3-0.2 0.3-0.3 0.2-0.3 0.2-0.2 0.3-0.2 0.3c-0.20001 0.13333-2.8666 2.9334-8 8.4-5.2 5.5333-15.2 15.067-30 28.6-14.867 13.467-27.533 24.467-38 33-10.533 8.4667-19.467 14.533-26.8 18.2-7.3333 3.6667-16.667 7-28 10l-17 4.5-1.5 0.3-1.5 0.2 0.2-1.5 0.3-1.5 0.3-0.2 0.2-0.3-1-0.5-1-0.5 0.2-0.3 0.3-0.2 0.5-1.5 0.5-1.5 0.5-1c0.33334-0.66666 1.7333-3 4.2-7 2.5333-4 4.7333-6.6667 6.6-8 1.8-1.3333 2.4667-2.2667 2-2.8-0.53332-0.46668-0.63333-0.93335-0.29999-1.4l0.5-0.8 13-4.2c8.6667-2.8667 13-4.4 13-4.6v-0.20001l1.5-0.2 1.5-0.3 1-0.5 1-0.5 1-0.5 1-0.5 11.2-6.3c7.5333-4.1333 23.8-16.867 48.8-38.2s37.6-32.167 37.8-32.5l0.2-0.5h0.5l0.3-0.2 0.2-0.3 0.2-0.3 0.3-0.2 0.3-0.2 0.2-0.3 0.2-0.3 0.3-0.2 0.3-0.2 0.2-0.3 0.2-0.3 0.3-0.2 0.3-0.2 0.2-0.3 0.2-0.3 0.3-0.2 0.3-0.2 0.2-0.3 1-0.5 1-0.5 4.8-4.7c3.1334-3.2 4.8-4.8667 5-5l0.2-0.3 0.2-0.3 0.3-0.2 0.3-0.2 0.2-0.3 0.2-0.3 0.3-0.2 0.3-0.2 0.2-0.3 0.2-0.3 0.3-0.2 0.3-0.2 0.2-0.3 0.2-0.3 0.3-0.2 0.3-0.2 0.2-0.3 0.2-0.3 0.3-0.2 0.3-0.2 0.2-0.3 0.2-0.3 0.3-0.2 0.3-0.2 0.2-0.3h-2l-3 0.5c-2 0.33333-4.1667 1-6.5 2l-3.5 1.5h-2l-1-0.5-1-0.5-0.2-0.3-0.3-0.2-0.3-0.2-0.2-0.3-0.2-0.3-0.3-0.2-0.3-0.2-0.2-0.3-0.2-0.3-0.3-0.2v-3l0.3-0.2 0.2-0.3 0.2-0.3 0.3-0.2 0.3-0.2 0.2-0.3 0.2-0.3 0.3-0.2 0.5-1 0.5-1 0.3-0.2 0.2-0.3 0.2-0.3 0.3-0.2 0.3-0.2 0.2-0.3 4.5-2.5c3-1.6667 7.1667-2.5 12.5-2.5s10.267 1.2333 14.8 3.7c4.4667 2.5333 6.8 3.8667 7 4z"/>
  <path id="svg_13" fill="#fc0100" stroke="#fc0100" d="m611 431.5v-0.5h1c0.66669 0 1 1 1 3v3l1 0.2 1 0.3 0.2 0.3 0.3 0.2 0.5 1 0.5 1 0.5 1 0.5 1h0.5l-0.2 3.5c-0.20001 2.3333 0.3667 10.167 1.7 23.5s3 24.667 5 34c2 9.3333 2.6667 17.667 2 25-0.66669 7.3333-2.1667 14.833-4.5 22.5-2.3333 7.6667-2.6667 13.833-1 18.5 1.6667 4.6667 2.5 11 2.5 19s-0.90002 14.6-2.7 19.8c-1.8666 5.1334-4.6333 9.8667-8.3 14.2s-7.8333 7.6667-12.5 10-7.3333 3.6-8 3.8l-1 0.2v-1c0-0.66669-1.6667-1.0666-5-1.2-3.3333-0.20001-13.667-1.3-31-3.3s-29.667-4.3333-37-7c-7.3333-2.6667-14.067-7.1-20.2-13.3-6.2-6.1334-11.8-13.867-16.8-23.2-5-9.3333-9.2667-15.733-12.8-19.2-3.4667-3.5333-7.0334-5.4667-10.7-5.8-3.6667-0.33331-7 0-10 1l-4.5 1.5-0.2 0.3-0.3 0.2-0.3 0.2-0.2 0.3-1 0.5-1 0.5-0.2 0.3-0.3 0.2-0.3 0.2-0.2 0.3h-2v-0.5l0.5-0.2 0.5-0.3v-0.5l0.2-0.5 0.3-0.5 0.3-0.2 0.2-0.3 0.2-0.3 0.3-0.2 0.3-0.2 0.2-0.3 0.2-0.3 0.3-0.2 0.3-0.2 0.2-0.3 0.2-0.3 0.3-0.2 0.3-0.2 0.2-0.3 0.2-0.3 0.3-0.2 0.3-0.2 0.2-0.3 6.5-6c4.3333-4 9.1667-7.1667 14.5-9.5s14.833-4 28.5-5 24.333-3.1667 32-6.5c7.6667-3.3333 17-4.8333 28-4.5 11 0.33331 19.333 1 25 2 5.6667 1 8.6667 1.6 9 1.8l0.5 0.2h0.5l0.3 0.2 0.2 0.3 7.8 4.7c5.1334 3.2 7.9334 5.0666 8.4 5.6 0.53332 0.46668 0.86664 0.79999 1 1l0.3 0.2 0.3 0.2 0.2 0.3 0.2 0.3 0.3 0.2 0.3 0.2 0.2 0.3h2l0.2-0.3 0.3-0.2 0.5-1 0.5-1 0.5-1.5c0.33331-1 1.1667-3.1667 2.5-6.5s2.1667-8.6667 2.5-16c0.33331-7.3333 0.06665-12.833-0.79999-16.5l-1.2-5.5-0.2-1c-0.20001-0.66666-0.6333-4.5-1.3-11.5-0.66669-7-1.1-17.667-1.3-32l-0.2-21.5v-0.5z"/>
  <path id="svg_14" fill="#fcf102" stroke="#fcf102" d="m342 212.2l1-0.2v1c0 0.66667-0.33334 1-1 1s-1.4 0.66667-2.2 2c-0.86667 1.3333-4.7333 3.4-11.6 6.2-6.8 2.8667-18.033 5.2-33.7 7l-23.5 2.8v2l-4 0.2c-2.6667 0.2-4.6667 0.46668-6 0.8-1.3333 0.33333-4.1667 1.4-8.5 3.2l-6.5 2.8-1.5 0.2-1.5 0.3-1 0.5-1 0.5-0.2 0.3-0.3 0.2-0.3 0.2-0.2 0.3-0.2 0.3-0.3 0.2-0.3 0.2-0.2 0.3-0.2 0.3-0.3 0.2-0.3 0.2-0.2 0.3-0.2 0.3c-0.2 0.13333-0.53334 0.26666-1 0.39999-0.53334 0.2-2.6333 1.2-6.3 3-3.6667 1.8667-5.5 3.1333-5.5 3.8 0 0.66667-0.83333 1.3333-2.5 2-1.6667 0.66667-2.5 1.3333-2.5 2 0 0.66666-1.3333 1.7333-4 3.2-2.6667 1.5333-6 3.2-10 5-4 1.8667-6.0667 3.1333-6.2 3.8l-0.3 1h-1.5v-0.5l-1.5-0.3-1.5-0.2-0.2-1c-0.2-0.66666-0.40001-2.1667-0.60001-4.5-0.13333-2.3333-0.7-3.4333-1.7-3.3-1 0.19998-1.5667-0.26669-1.7-1.4l-0.3-1.8 0.3-0.2 0.2-0.3-1-0.5-1-0.5-0.2-0.3c-0.2-0.13333-0.53334-0.36667-1-0.7l-0.8-0.5h-0.5l-0.3-1c-0.13333-0.66667 0.3-1 1.3-1s2-0.93333 3-2.8l1.5-2.7 0.2-0.3 0.3-0.2 0.3-0.2 0.2-0.3 0.2-0.3 0.3-0.2 0.3-0.2 0.2-0.3-0.2-0.3-0.3-0.2-0.3-0.2-0.2-0.3 0.2-0.3 0.3-0.2 0.5-1 0.5-1 0.3-1 0.2-1 9-6.8c6-4.4667 13.167-8.7 21.5-12.7 8.3333-4 15.167-6.6667 20.5-8 5.3333-1.3333 11.667-1.8333 19-1.5 7.3333 0.33333 13.5 1.1667 18.5 2.5s15 2 30 2 23.333-0.33333 25-1c1.6667-0.66667 2.8333-1.1 3.5-1.3z"/>
  <path id="svg_15" fill="#fdf401" stroke="#fdf401" d="m630.5 188.2l6.5-0.2 1 0.2c0.66669 0.2 0.33331 0.8-1 1.8s1.3333 2.8333 8 5.5 12.267 5.9 16.8 9.7c4.4667 3.8667 6.8 5.9667 7 6.3l0.2 0.5v0.2c0 0.2 0.16669 0.40001 0.5 0.60001l0.5 0.2 0.2 1 0.3 1 0.5 1.5 0.5 1.5v1l-0.3 0.2-0.2 0.3-1 0.3-1 0.2 0.2 1 0.3 1 0.3 0.2 0.2 0.3-1 0.5-1 0.5v0.5l-0.5-0.2-0.5-0.3-0.2-0.3-0.3-0.2-0.3-0.2-0.2-0.3-0.2-0.3-0.3-0.2-0.3-0.2-0.2-0.3-0.2-0.3c-0.20001-0.13333-2.5333-1.4667-7-4-4.5333-2.4667-9.4667-3.7-14.8-3.7s-9.5 0.83333-12.5 2.5l-4.5 2.5-0.2 0.3-0.3 0.2-0.3 0.2-0.2 0.3-0.2 0.3-0.3 0.2-0.5 1-0.5 1-0.3 0.2-0.2 0.3-0.2 0.3-0.3 0.2-0.3 0.2-0.2 0.3-0.2 0.3-0.3 0.2v3l0.3 0.2 0.2 0.3 0.2 0.3 0.3 0.2 0.3 0.2 0.2 0.3 0.2 0.3 0.3 0.2 0.3 0.2 0.2 0.3 1 0.5 1 0.5h2l3.5-1.5c2.3333-1 4.5-1.6667 6.5-2l3-0.5h2l-0.2 0.3-0.3 0.2-0.3 0.2-0.2 0.3-0.2 0.3-0.3 0.2-0.3 0.2-0.2 0.3-0.2 0.3-0.3 0.2-0.3 0.2-0.2 0.3-0.2 0.3-0.3 0.2-0.3 0.2-0.2 0.3-0.2 0.3-0.3 0.2-0.3 0.2-0.2 0.3-0.2 0.3-0.3 0.2-0.3 0.2-0.2 0.3-0.2 0.3c-0.20001 0.13333-1.8666 1.8-5 5l-4.8 4.7-1 0.5-1 0.5-0.2 0.3-0.3 0.2-0.3 0.2-0.2 0.3-0.2 0.3-0.3 0.2-0.3 0.2-0.2 0.3-0.2 0.3-0.3 0.2-0.3 0.2-0.2 0.3-0.2 0.3-0.3 0.2-0.3 0.2-0.2 0.3-0.2 0.3-0.3 0.2h-0.5l0.2-1 0.3-1 0.3-0.2 0.2-0.3 0.2-0.3 0.3-0.2 0.5-1 0.5-1 0.5-1c0.33331-0.66667 0.66669-1.5 1-2.5s-0.59998-1.8333-2.8-2.5c-2.1334-0.66667-3.2667-1.6667-3.4-3-0.20001-1.3333-0.73334-2.3333-1.6-3l-1.2-1-0.2-1c-0.20001-0.66667-0.86664-1.4-2-2.2-1.2-0.86667-2.0666-1.0667-2.6-0.60001-0.46668 0.53334-1.4667-0.2-3-2.2l-2.2-3-0.2-1-0.3-1-0.3-0.2-0.2-0.3-0.2-0.3-0.3-0.2-0.3-0.2c-0.13336-0.2-2.7-2.5333-7.7-7-5-4.5333-7.5-7.1333-7.5-7.8 0-0.66667-1.7333-2.3333-5.2-5-3.5333-2.6667-11.067-7.7333-22.6-15.2-11.467-7.5333-18.133-12.067-20-13.6l-2.7-2.2-0.3-0.2-0.2-0.3-1-0.3-1-0.2h-0.20001c-0.20001 0-0.6333-0.66667-1.3-2-0.66669-1.3333-1.4334-2.4-2.3-3.2l-1.2-1.3-3.5-0.3-3.5-0.2v-2l11.2-1c7.5333-0.66667 11.067-1.2667 10.6-1.8-0.53332-0.46666 1.5333-0.53332 6.2-0.2 4.6667 0.33333 12.333 4 23 11s19.167 13 25.5 18c6.3333 5 10.433 7.7333 12.3 8.2 1.8 0.53334 3.8 0.53334 6 0 2.1334-0.46666 3.7-1.0333 4.7-1.7 1-0.66667 3.6667-1.1 8-1.3zm-13.3 4.6c-0.13336-0.2-0.13336-0.40001 0-0.60001 0.20001-0.13333 0.29999-0.033325 0.29999 0.3 0 0.33333-0.099976 0.43333-0.29999 0.3z"/>
  <path id="svg_16" fill="#fde500" stroke="#fde500" d="m603.5 152.8l0.5 0.2v0.2c0 0.2 0.16669 0.40001 0.5 0.60001l0.5 0.2 0.2 0.5c0.20001 0.33333 0.46668 1 0.79999 2l0.5 1.5 0.5 1 0.5 1 0.3 0.2 0.2 0.3 1 0.3c0.66669 0.13333 1 0.53332 1 1.2 0 0.66667 0.33331 1 1 1s1.8333 1.0667 3.5 3.2c1.6667 2.2 2.8333 3.4 3.5 3.6 0.66669 0.13333 2.3333 1.8 5 5 2.6667 3.1333 4.6667 5.2 6 6.2s2.0666 1.6 2.2 1.8l0.3 0.2 0.3 0.2 0.2 0.3 1 0.5 1 0.5-0.2 0.3-0.3 0.2-0.3 0.2-0.2 0.3 1 0.5 1 0.5 1 0.5 1 0.5v0.5l-6.5 0.2c-4.3333 0.2-7.3333 0.96668-9 2.3s-4.1667 1.6667-7.5 1c-3.3333-0.66667-8.1667-3.5-14.5-8.5s-14.833-11-25.5-18-18.333-10.667-23-11c-4.6667-0.33333-6.7333-0.26666-6.2 0.2 0.46668 0.53334-3.0666 1.1333-10.6 1.8l-11.2 1-1-0.2c-0.66669-0.2-4.8333-0.53334-12.5-1l-11.5-0.8-0.5 0.2c-0.33334 0.2-1.8333 0.63333-4.5 1.3s-8.1667 3.5-16.5 8.5-16.167 9.3333-23.5 13c-7.3333 3.6667-15.333 6.0667-24 7.2l-13 1.8h-3v-2l2-0.2 2-0.3 5.5-2c3.6667-1.3333 8.2333-4.2333 13.7-8.7 5.5333-4.5333 11.2-10.2 17-17 5.8667-6.8667 11.8-12.3 17.8-16.3s11.833-6.6667 17.5-8c5.6667-1.3333 14.667-2 27-2s24.167 1.3333 35.5 4 21 5.5 29 8.5 13.833 5.3333 17.5 7c3.6667 1.6667 5.6667 2.6 6 2.8zm14.7 38c-0.13336-0.2-0.13336-0.40001 0-0.60001 0.20001-0.13333 0.29999-0.033325 0.29999 0.3 0 0.33333-0.099976 0.43333-0.29999 0.3z"/>
  <path id="svg_17" fill="#fdfdfc" stroke="#fdfdfc" d="m601.8 514l12.2-16 1.2 5.5c0.86664 3.6667 1.1333 9.1667 0.79999 16.5s-1.1667 12.667-2.5 16c-1.3333 3.3333-2.1667 5.5-2.5 6.5l-0.5 1.5-0.5 1-0.5 1-0.3 0.2-0.2 0.3h-2l-0.2-0.3-0.3-0.2-0.3-0.2-0.2-0.3-0.2-0.3-0.3-0.2-0.3-0.2c-0.13336-0.20001-0.46668-0.53332-1-1-0.46668-0.53332-3.2667-2.4-8.4-5.6l-7.8-4.7-0.2-0.3-0.3-0.2h-0.5v-0.5l0.2-0.3 0.3-0.2 0.3-0.2 0.2-0.3 0.2-0.3 0.3-0.2 0.3-0.2 0.2-0.3 0.2-0.3c0.20001-0.13336 4.4-5.5333 12.6-16.2z"/>
  <path id="svg_18" fill="#fefeb3" stroke="#fefeb3" d="m487 298.2v-0.20001l16.5 1c11 0.66666 16.5 1.6 16.5 2.8 0 1.1333 1.0666 2.4667 3.2 4 2.2 1.4667 3.6333 3.5334 4.3 6.2 0.66669 2.6667 0.23334 4.7333-1.3 6.2-1.4667 1.5333-2.6 2.5333-3.4 3-0.86664 0.53332-1.4 0.86667-1.6 1l-0.2 0.3-0.2 0.3-0.3 0.2-0.3 0.2-0.2 0.3-1.5 0.5-1.5 0.5-0.2 0.3-0.3 0.2-0.5 1-0.5 1-0.3 0.2-0.2 0.3v0.70001c0 0.19998-4.3333 1.7333-13 4.6l-13 4.2-1.5 0.2c-1 0.19998-4.5 1.1333-10.5 2.8s-14.167 3.4-24.5 5.2l-15.5 2.8v-0.5l-4-0.5-4-0.5-1-0.5c-0.66666-0.33334-7.3333-0.33334-20 0s-21.733-0.066681-27.2-1.2l-8.3-1.8-0.3-0.2-0.2-0.3 1.5-0.3c1-0.13333 1.3333-0.60001 1-1.4-0.33334-0.86667-0.89999-2.4-1.7-4.6-0.86667-2.1333-0.79999-4.0334 0.20001-5.7 1-1.6667 4.2667-5 9.8-10l8.2-7.5h0.20001c0.19998 0 0.39999-0.16666 0.59998-0.5l0.2-0.5 5-1.2c3.3333-0.86667 12-1.9666 26-3.3 14-1.3333 26.5-2.6667 37.5-4s17.5-2.1667 19.5-2.5l3-0.5 1-0.5 1-0.5 1-0.5 1-0.5v-0.29999z"/>
  <path id="svg_19" fill="#0a0903" stroke="#0a0903" d="m567 118.8l1 0.2v0.2c0 0.2 0.16669 0.4 0.5 0.60001l0.5 0.2 9.8 5c6.4667 3.3333 10.8 5.7333 13 7.2 2.1334 1.5333 3.2667 2.4 3.4 2.6l0.3 0.2 0.3 0.2 0.2 0.3 1 0.3 1 0.2v0.2c0 0.2 0.16669 0.40001 0.5 0.60001l0.5 0.2v0.2c0 0.2 0.16669 0.40001 0.5 0.60001l0.5 0.2h0.5l5.5 6c3.6667 4 5.6667 6.3333 6 7l0.5 1 0.3 0.2 0.2 0.3 0.2 0.3 0.3 0.2 0.3 0.2 0.2 0.3 0.2 0.3 0.3 0.2 0.3 0.2 0.2 0.3 0.2 0.3 0.3 0.2 0.5 1 0.5 1 0.3 0.2 0.2 0.3 0.2 0.3 0.3 0.2 0.3 0.2 0.2 0.3h-2l-1-0.5-1-0.5-1-0.5-1-0.5-1.5-0.5c-1-0.33333-1.8333-0.66667-2.5-1l-1-0.5-1-0.3-1-0.2-0.2-0.5c-0.20001-0.33333-0.39996-0.5-0.59998-0.5h-0.20001l-0.5-0.2c-0.33331-0.2-2.3333-1.1333-6-2.8s-9.5-4-17.5-7-17.667-5.8333-29-8.5-23.167-4-35.5-4-21.333 0.66667-27 2c-5.6667 1.3333-11.5 4-17.5 8s-11.933 9.4333-17.8 16.3c-5.8 6.8-11.467 12.467-17 17-5.4667 4.4667-10.033 7.3667-13.7 8.7l-5.5 2-2 0.3-2 0.2v2h3v0.2c0 0.2-1.1667 0.8-3.5 1.8l-3.5 1.5-1.5 0.5-1.5 0.5h-6l0.2-0.3 0.3-0.2 0.3-0.2 0.2-0.3 1-0.5 1-0.5 1-0.5 1-0.5 1-0.5 1-0.5 4.2-5.3c2.8667-3.4667 5.4666-7.8667 7.8-13.2 2.3333-5.3333 3.6-8.1667 3.8-8.5l0.2-0.5h0.5l0.5-1 0.5-1 6.3-7.8c4.1333-5.1333 9.2-10.2 15.2-15.2s12.667-9.3333 20-13c7.3333-3.6667 14.5-6.5 21.5-8.5s17.5-2.8333 31.5-2.5c14 0.33334 25.333 1.6667 34 4 8.6667 2.3333 13.333 3.6 14 3.8z"/>
  <path id="svg_20" fill="#090802" stroke="#090802" d="m252.5 190.2l12.5-2.2 16 1.8c10.667 1.1333 20.267 3.2667 28.8 6.4 8.4667 3.2 14.933 6.0667 19.4 8.6 4.5333 2.4667 7.6333 3.8667 9.3 4.2 1.6667 0.33333 3.6667 0.5 6 0.5h8.5l-1 0.5-1 0.5-1.5 0.5-1.5 0.5-1.5 0.5-1.5 0.5-0.2 0.3-0.3 0.2-0.3-0.2-0.2-0.3-0.2-0.3c-0.19998-0.13333-0.39999-0.2-0.59998-0.2h-0.20001l-0.5 0.2c-0.33334 0.2-0.5 0.40001-0.5 0.60001v0.2l-1.5 0.2c-1 0.2-2 0.46668-3 0.8-1 0.33333-9 0.5-24 0.5s-25-0.66667-30-2-11.167-2.1667-18.5-2.5c-7.3333-0.33333-13.667 0.16667-19 1.5-5.3333 1.3333-12.167 4-20.5 8-8.3333 4-15.5 8.2333-21.5 12.7l-9 6.8h-0.5l-0.3 0.2-0.2 0.3-0.2 0.3-0.3 0.2-0.3 0.2-0.2 0.3-1 0.5-1 0.5-0.2 0.3-0.3 0.2-0.3 0.2-0.2 0.3-0.2 0.3-0.3 0.2-0.3 0.2-0.2 0.3-0.2 0.3-0.3 0.2-10.5 10.5c-7 7-15.5 17-25.5 30s-15.5 20.333-16.5 22c-1 1.6667-1.6667 2.8333-2 3.5l-0.5 1-0.5 1-0.5 1-0.5 1-0.5 1-0.5 1-0.5 1-0.3 0.2-0.2 0.3-0.2 0.3-0.3 0.2v-3l0.5-3 0.5-3 0.5-3c0.33333-2 1.3333-5.5 3-10.5s4.6667-12.167 9-21.5c4.3333-9.3333 10.267-18.833 17.8-28.5 7.4667-9.6667 14.133-16.667 20-21 5.8-4.3333 11.533-8.5 17.2-12.5 5.6667-4 14.067-8.2667 25.2-12.8 11.2-4.4667 20.967-7.4667 29.3-9z"/>
  <path id="svg_21" fill="#fdfd0e" stroke="#fdfd0e" d="m615.2 231l-0.2-1 1.2 1c0.86664 0.66667 1.4 1.6667 1.6 3 0.13336 1.3333 1.2667 2.3333 3.4 3 2.2 0.66667 3.1333 1.5 2.8 2.5-0.33331 1-0.66669 1.8333-1 2.5l-0.5 1-0.5 1-0.5 1-0.3 0.2-0.2 0.3-0.2 0.3-0.3 0.2-0.3 1-0.2 1-0.2 0.5c-0.20001 0.33333-12.8 11.167-37.8 32.5s-41.267 34.067-48.8 38.2l-11.2 6.3-1 0.5-1 0.5-1 0.5-1 0.5-1.5 0.3-1.5 0.2v-0.5l0.2-0.3 0.3-0.2 0.5-1 0.5-1 0.3-0.2 0.2-0.3 1.5-0.5 1.5-0.5 0.2-0.3 0.3-0.2 0.3-0.2 0.2-0.3 0.2-0.3c0.20001-0.13333 0.73334-0.46668 1.6-1 0.79999-0.46668 1.9334-1.4667 3.4-3 1.5333-1.4667 1.9667-3.5334 1.3-6.2-0.66669-2.6667-2.1-4.7333-4.3-6.2-2.1334-1.5333-3.2-2.8667-3.2-4 0-1.2-5.5-2.1333-16.5-2.8l-16.5-1-3.5-0.2-3.5-0.3-3-0.5-3-0.5-2.5-0.5-2.5-0.5 3-0.5c2-0.33334 3.8333-0.66666 5.5-1l2.5-0.5-1.5-0.5c-1-0.33334-2.3333-0.83334-4-1.5l-2.5-1 1-0.5 1-0.5 0.2-0.3 0.3-0.2 0.3-0.2 0.2-0.3 2-0.5c1.3333-0.33334 3.6667-0.66666 7-1l5-0.5 1.5-0.5 1.5-0.5-0.2-0.3-0.3-0.2-0.3-0.2-0.2-0.3-2.5-0.5c-1.6667-0.33334-3.1667-0.66666-4.5-1l-2-0.5-3-0.5-3-0.5 4.5-0.5 4.5-0.5 28.5-1.5c19-1 33-1.6667 42-2 9-0.33334 13.833-0.66666 14.5-1l1-0.5 0.2-0.3 0.3-0.2 0.3-0.2 0.2-0.3 1-0.3 1-0.2v1c0 0.66666-0.33331 1-1 1s-1.1667 0.39999-1.5 1.2l-0.5 1.3h3l0.2-0.3 0.3-0.2 0.3-0.2 0.2-0.3 6.8-5.3c4.4667-3.4667 7.8-6.0334 10-7.7 2.1334-1.6667 4.2-3.7667 6.2-6.3 2-2.4667 3.9334-4.2667 5.8-5.4 1.8-1.2 2.8-2.3 3-3.3 0.13336-1 1.4667-2.1667 4-3.5 2.4667-1.3333 3.8667-4 4.2-8 0.33331-4 0.40002-6.3333 0.20001-7z"/>
  <path id="svg_22" fill="#fefa57" stroke="#fefa57" d="m196 333l-0.5 2-0.5 1-0.5 1-0.3 0.5-0.2 0.5-5.8 4.5c-3.8 3-6.7 6-8.7 9s-3.1667 5.3333-3.5 7c-0.33333 1.6667-0.60001 2.6667-0.8 3l-0.2 0.5h-0.5l-0.5-1-0.5-1-0.3-0.2-0.2-0.3-0.2-0.3-0.3-0.2-0.3 0.2-0.2 0.3-0.2 0.3-0.3 0.2-0.3 1.5c-0.13333 1-1.2 1.7667-3.2 2.3-2 0.46668-5.3333 0.36667-10-0.29999s-7.9333-2.4333-9.8-5.3c-1.8-2.8-2.8667-6.2-3.2-10.2-0.33333-4 0.16667-8.1667 1.5-12.5s4.1-9.8333 8.3-16.5l6.2-10 0.5-0.2 0.5-0.3 1-0.3 1-0.2v-2l1-0.2 1-0.3 1-0.5 1-0.5 6.5-4c4.3333-2.6667 8.2333-3.7667 11.7-3.3 3.5333 0.53332 6.6333 2.3 9.3 5.3s3.8333 7.8333 3.5 14.5c-0.33333 6.6667-0.83333 10.667-1.5 12-0.66667 1.3333-1.1667 2.6667-1.5 4z"/>
  <path id="svg_23" fill="#fdfb39" stroke="#fdfb39" d="m387.2 312.2l-0.2 0.3h1.5c1 0 1.8333-0.10001 2.5-0.29999l1-0.2v1c0 0.66666-2 2.4-6 5.2-4 2.8667-6.9333 5.2-8.8 7-1.8 1.8667-3.2 3.6333-4.2 5.3s-1.0667 3.5667-0.20001 5.7c0.80002 2.2 1.3667 3.7333 1.7 4.6 0.33334 0.80002 0 1.2667-1 1.4l-1.5 0.3 0.2 0.3 0.3 0.2 8.3 1.8c5.4667 1.1333 14.533 1.5334 27.2 1.2 12.667-0.33334 19.333-0.33334 20 0l1 0.5 4 0.5 4 0.5v0.5l-1 0.2-1 0.3-4 0.5c-2.6667 0.33334-9 1.1667-19 2.5s-31.333 2.4333-64 3.3l-49 1.2 0.2-0.5 0.3-0.5 0.3-0.2 0.2-0.3 0.2-0.3 0.3-0.2 0.5-1 0.5-1 2.7-7.8c1.8667-5.1333 4.9666-9.5334 9.3-13.2 4.3333-3.6667 14-8.6667 29-15s25.667-9.5 32-9.5c6.3333 0 10.433 0.23334 12.3 0.70001 1.8 0.53332 2.3667 1.3 1.7 2.3-0.66666 1-1 1.6667-1 2 0 0.33334-0.10001 0.56668-0.29999 0.70001zm-23-3.4c-0.13333-0.19998-0.13333-0.39999 0-0.59998 0.19998-0.13333 0.29999-0.033356 0.29999 0.29999 0 0.33334-0.10001 0.43332-0.29999 0.29999zm-8 3c-0.13333-0.19998-0.13333-0.39999 0-0.59998 0.19998-0.13333 0.29999-0.033356 0.29999 0.29999 0 0.33334-0.10001 0.43332-0.29999 0.29999zm-5 2c-0.13333-0.19998-0.13333-0.39999 0-0.59998 0.19998-0.13333 0.29999-0.033356 0.29999 0.29999 0 0.33334-0.10001 0.43332-0.29999 0.29999z"/>
  <path id="svg_24" fill="#fefe57" stroke="#fefe57" d="m267 234.2l4-0.2 1.5 0.2 1.5 0.3 1 0.5c0.66666 0.33333 1.8333 0.93333 3.5 1.8 1.6667 0.8 2.5667 2.8667 2.7 6.2 0.19998 3.3333-0.53336 6.1667-2.2 8.5-1.6667 2.3333-4.7333 4.9-9.2 7.7-4.5333 2.8667-9.6333 4.4666-15.3 4.8-5.6667 0.33334-9.1667 0.16666-10.5-0.5l-2-1-0.2-0.3-0.3-0.2-0.3-0.2-0.2-0.3-0.2-0.3-0.3-0.2-0.3-1-0.2-1h-2l0.2-2 0.3-2 0.5-2c0.33333-1.3333 1-2.8333 2-4.5l1.5-2.5 0.3-0.2 0.2-0.3 0.2-0.3 0.3-0.2 0.5-1 0.5-1 0.3-0.2 0.2-0.3 0.2-0.3 0.3-0.2 0.3-0.5 0.2-0.5 6.5-2.8c4.3333-1.8 7.1667-2.8667 8.5-3.2 1.3333-0.33333 3.3333-0.60001 6-0.8z"/>
  <path id="svg_25" fill="#fefe45" stroke="#fefe45" d="m498 156v-1l11.5 0.8c7.6667 0.46666 11.833 0.8 12.5 1l1 0.2v2l3.5 0.2 3.5 0.3 1.2 1.3c0.86664 0.8 1.6333 1.8667 2.3 3.2 0.66669 1.3333 1.1 2 1.3 2h0.20001l-0.2 4c-0.20001 2.6667-0.39996 4.5-0.59998 5.5-0.13336 1-0.8667 1.4333-2.2 1.3-1.3333-0.2-3.3333 1.0333-6 3.7s-5.8333 4.1-9.5 4.3c-3.6667 0.13333-5.5-0.13333-5.5-0.8s-1.4-1.6667-4.2-3c-2.8667-1.3333-4.1333-2.3333-3.8-3 0.33334-0.66667-0.73334-1.7333-3.2-3.2-2.5333-1.5333-4.0666-2.8667-4.6-4l-0.7-1.8-0.3-1.5c-0.13333-1 0.29999-1.5 1.3-1.5s1.6667-0.93333 2-2.8c0.33334-1.8 1.1667-2.8667 2.5-3.2l2-0.5 1.5-0.5 1.5-0.5-1-0.5c-0.66666-0.33333-1.8333-0.60001-3.5-0.8-1.6667-0.13333-2.5-0.53332-2.5-1.2zm21.2 27.8c-0.13336-0.2-0.13336-0.40001 0-0.60001 0.20001-0.13333 0.29999-0.033325 0.29999 0.3 0 0.33333-0.099976 0.43333-0.29999 0.3z"/>
 </g>
</svg>
